REM DIRINDEX 1\2\4\18,1\2\4\19,1\2\5\20,1\2\5\21,1\2\6\22,1\2\6\23,1\2\7\24,1\2\8\25,1\2\9\26,1\2\10\27,1\2\10\28,1\3\11\29,1\3\11\30,1\3\11\31,1\3\11\32,1\3\12\33,1\3\12\34,1\3\12\35,1\3\12\36,1\3\13\37,1\3\13\38,1\3\13\39,1\3\13\40,1\3\14\41,1\3\14\42,1\3\15\43,1\3\15\44,1\3\16\45,1\3\16\46,1\3\17\47,1\3\17\48,1\3\17\49,1\3\17\50
REM DIRNAME cjc135,folder01,folder02,folder03,folder04,folder05,folder06,folder07,folder08,folder09,folder10,folder11,folder12,folder13,folder14,folder15,folder16,folder17,folder18,folder19,folder20,folder21,folder22,folder23,folder24,folder25,folder26,folder27,folder28,folder29,folder30,folder31,folder32,folder33,folder34,folder35,folder36,folder37,folder38,folder39,folder40,folder41,folder42,folder43,folder44,folder45,folder46,folder47,folder48,folder49
TITLE ""
FILE "06.mp3" MP3
  TRACK 01 AUDIO
    TITLE "0:"
    INDEX 01 00:00:00
  TRACK 02 AUDIO
    TITLE "22:cjc135_0853"
    INDEX 01 00:00:15
  TRACK 03 AUDIO
    TITLE "0:"
    INDEX 01 00:01:24
  TRACK 04 AUDIO
    TITLE "23:cjc135_0854"
    INDEX 01 00:01:50
  TRACK 05 AUDIO
    TITLE "0:"
    INDEX 01 00:04:03
  TRACK 06 AUDIO
    TITLE "22:cjc135_0855"
    INDEX 01 00:05:05
  TRACK 07 AUDIO
    TITLE "0:"
    INDEX 01 00:06:12
  TRACK 08 AUDIO
    TITLE "23:cjc135_0856"
    INDEX 01 00:06:37
  TRACK 09 AUDIO
    TITLE "0:"
    INDEX 01 00:08:44
  TRACK 10 AUDIO
    TITLE "22:cjc135_0857"
    INDEX 01 00:09:45
  TRACK 11 AUDIO
    TITLE "0:"
    INDEX 01 00:10:41
  TRACK 12 AUDIO
    TITLE "23:cjc135_0858"
    INDEX 01 00:10:65
  TRACK 13 AUDIO
    TITLE "0:"
    INDEX 01 00:13:14
  TRACK 14 AUDIO
    TITLE "22:cjc135_0859"
    INDEX 01 00:14:17
  TRACK 15 AUDIO
    TITLE "0:"
    INDEX 01 00:15:19
  TRACK 16 AUDIO
    TITLE "23:cjc135_0860"
    INDEX 01 00:15:44
  TRACK 17 AUDIO
    TITLE "0:"
    INDEX 01 00:18:46
  TRACK 18 AUDIO
    TITLE "22:cjc135_0861"
    INDEX 01 00:19:44
  TRACK 19 AUDIO
    TITLE "0:"
    INDEX 01 00:20:51
  TRACK 20 AUDIO
    TITLE "23:cjc135_0862"
    INDEX 01 00:21:00
  TRACK 21 AUDIO
    TITLE "0:"
    INDEX 01 00:23:40
  TRACK 22 AUDIO
    TITLE "22:cjc135_0863"
    INDEX 01 00:24:43
  TRACK 23 AUDIO
    TITLE "0:"
    INDEX 01 00:25:60
  TRACK 24 AUDIO
    TITLE "23:cjc135_0864"
    INDEX 01 00:26:11
  TRACK 25 AUDIO
    TITLE "0:"
    INDEX 01 00:29:05
  TRACK 26 AUDIO
    TITLE "22:cjc135_0865"
    INDEX 01 00:30:05
  TRACK 27 AUDIO
    TITLE "0:"
    INDEX 01 00:31:00
  TRACK 28 AUDIO
    TITLE "23:cjc135_0866"
    INDEX 01 00:31:26
  TRACK 29 AUDIO
    TITLE "0:"
    INDEX 01 00:33:38
  TRACK 30 AUDIO
    TITLE "22:cjc135_0867"
    INDEX 01 00:34:38
  TRACK 31 AUDIO
    TITLE "0:"
    INDEX 01 00:35:37
  TRACK 32 AUDIO
    TITLE "23:cjc135_0868"
    INDEX 01 00:35:63
  TRACK 33 AUDIO
    TITLE "0:"
    INDEX 01 00:37:63
  TRACK 34 AUDIO
    TITLE "22:cjc135_0869"
    INDEX 01 00:38:63
  TRACK 35 AUDIO
    TITLE "0:"
    INDEX 01 00:40:01
  TRACK 36 AUDIO
    TITLE "23:cjc135_0870"
    INDEX 01 00:40:26
  TRACK 37 AUDIO
    TITLE "0:"
    INDEX 01 00:43:01
  TRACK 38 AUDIO
    TITLE "22:cjc135_0871"
    INDEX 01 00:44:01
  TRACK 39 AUDIO
    TITLE "0:"
    INDEX 01 00:44:71
  TRACK 40 AUDIO
    TITLE "23:cjc135_0872"
    INDEX 01 00:45:22
  TRACK 41 AUDIO
    TITLE "0:"
    INDEX 01 00:47:54
  TRACK 42 AUDIO
    TITLE "22:cjc135_0873"
    INDEX 01 00:48:55
  TRACK 43 AUDIO
    TITLE "0:"
    INDEX 01 00:49:61
  TRACK 44 AUDIO
    TITLE "23:cjc135_0874"
    INDEX 01 00:50:09
  TRACK 45 AUDIO
    TITLE "0:"
    INDEX 01 00:52:57
  TRACK 46 AUDIO
    TITLE "22:cjc135_0875"
    INDEX 01 00:53:55
  TRACK 47 AUDIO
    TITLE "0:"
    INDEX 01 00:54:66
  TRACK 48 AUDIO
    TITLE "23:cjc135_0876"
    INDEX 01 00:55:20
  TRACK 49 AUDIO
    TITLE "0:"
    INDEX 01 00:57:50
  TRACK 50 AUDIO
    TITLE "22:cjc135_0877"
    INDEX 01 00:58:52
  TRACK 51 AUDIO
    TITLE "0:"
    INDEX 01 00:59:45
  TRACK 52 AUDIO
    TITLE "23:cjc135_0878"
    INDEX 01 00:59:67
  TRACK 53 AUDIO
    TITLE "0:"
    INDEX 01 01:02:34
  TRACK 54 AUDIO
    TITLE "22:cjc135_0879"
    INDEX 01 01:03:35
  TRACK 55 AUDIO
    TITLE "0:"
    INDEX 01 01:04:35
  TRACK 56 AUDIO
    TITLE "23:cjc135_0880"
    INDEX 01 01:04:62
  TRACK 57 AUDIO
    TITLE "0:"
    INDEX 01 01:07:21
  TRACK 58 AUDIO
    TITLE "22:cjc135_0881"
    INDEX 01 01:08:19
  TRACK 59 AUDIO
    TITLE "0:"
    INDEX 01 01:09:20
  TRACK 60 AUDIO
    TITLE "23:cjc135_0882"
    INDEX 01 01:09:44
  TRACK 61 AUDIO
    TITLE "0:"
    INDEX 01 01:11:74
  TRACK 62 AUDIO
    TITLE "22:cjc135_0883"
    INDEX 01 01:12:71
  TRACK 63 AUDIO
    TITLE "0:"
    INDEX 01 01:14:06
  TRACK 64 AUDIO
    TITLE "23:cjc135_0884"
    INDEX 01 01:14:31
  TRACK 65 AUDIO
    TITLE "0:"
    INDEX 01 01:17:22
  TRACK 66 AUDIO
    TITLE "22:cjc135_0885"
    INDEX 01 01:18:23
  TRACK 67 AUDIO
    TITLE "0:"
    INDEX 01 01:19:17
  TRACK 68 AUDIO
    TITLE "23:cjc135_0886"
    INDEX 01 01:19:44
  TRACK 69 AUDIO
    TITLE "0:"
    INDEX 01 01:21:53
  TRACK 70 AUDIO
    TITLE "22:cjc135_0887"
    INDEX 01 01:22:52
  TRACK 71 AUDIO
    TITLE "0:"
    INDEX 01 01:23:54
  TRACK 72 AUDIO
    TITLE "23:cjc135_0888"
    INDEX 01 01:24:02
  TRACK 73 AUDIO
    TITLE "0:"
    INDEX 01 01:26:27
  TRACK 74 AUDIO
    TITLE "22:cjc135_0889"
    INDEX 01 01:27:28
  TRACK 75 AUDIO
    TITLE "0:"
    INDEX 01 01:28:27
  TRACK 76 AUDIO
    TITLE "23:cjc135_0890"
    INDEX 01 01:28:53
  TRACK 77 AUDIO
    TITLE "0:"
    INDEX 01 01:31:30
  TRACK 78 AUDIO
    TITLE "22:cjc135_0891"
    INDEX 01 01:32:29
  TRACK 79 AUDIO
    TITLE "0:"
    INDEX 01 01:33:40
  TRACK 80 AUDIO
    TITLE "23:cjc135_0892"
    INDEX 01 01:33:64
  TRACK 81 AUDIO
    TITLE "0:"
    INDEX 01 01:36:43
  TRACK 82 AUDIO
    TITLE "22:cjc135_0893"
    INDEX 01 01:37:42
  TRACK 83 AUDIO
    TITLE "0:"
    INDEX 01 01:38:43
  TRACK 84 AUDIO
    TITLE "23:cjc135_0894"
    INDEX 01 01:38:67
  TRACK 85 AUDIO
    TITLE "0:"
    INDEX 01 01:41:18
  TRACK 86 AUDIO
    TITLE "22:cjc135_0895"
    INDEX 01 01:42:18
  TRACK 87 AUDIO
    TITLE "0:"
    INDEX 01 01:43:25
  TRACK 88 AUDIO
    TITLE "23:cjc135_0896"
    INDEX 01 01:43:51
  TRACK 89 AUDIO
    TITLE "0:"
    INDEX 01 01:46:14
  TRACK 90 AUDIO
    TITLE "22:cjc135_0897"
    INDEX 01 01:47:15
  TRACK 91 AUDIO
    TITLE "0:"
    INDEX 01 01:48:14
  TRACK 92 AUDIO
    TITLE "23:cjc135_0898"
    INDEX 01 01:48:40
  TRACK 93 AUDIO
    TITLE "0:"
    INDEX 01 01:50:43
  TRACK 94 AUDIO
    TITLE "22:cjc135_0899"
    INDEX 01 01:51:42
  TRACK 95 AUDIO
    TITLE "0:"
    INDEX 01 01:52:48
  TRACK 96 AUDIO
    TITLE "23:cjc135_0900"
    INDEX 01 01:52:73
  TRACK 97 AUDIO
    TITLE "0:"
    INDEX 01 01:56:06
  TRACK 98 AUDIO
    TITLE "22:cjc135_0901"
    INDEX 01 01:57:06
  TRACK 99 AUDIO
    TITLE "0:"
    INDEX 01 01:58:11
  TRACK 100 AUDIO
    TITLE "23:cjc135_0902"
    INDEX 01 01:58:36
  TRACK 101 AUDIO
    TITLE "0:"
    INDEX 01 02:00:55
  TRACK 102 AUDIO
    TITLE "22:cjc135_0903"
    INDEX 01 02:01:56
  TRACK 103 AUDIO
    TITLE "0:"
    INDEX 01 02:02:52
  TRACK 104 AUDIO
    TITLE "23:cjc135_0904"
    INDEX 01 02:03:02
  TRACK 105 AUDIO
    TITLE "0:"
    INDEX 01 02:05:48
  TRACK 106 AUDIO
    TITLE "22:cjc135_0905"
    INDEX 01 02:06:48
  TRACK 107 AUDIO
    TITLE "0:"
    INDEX 01 02:07:55
  TRACK 108 AUDIO
    TITLE "23:cjc135_0906"
    INDEX 01 02:08:07
  TRACK 109 AUDIO
    TITLE "0:"
    INDEX 01 02:10:57
  TRACK 110 AUDIO
    TITLE "22:cjc135_0907"
    INDEX 01 02:11:57
  TRACK 111 AUDIO
    TITLE "0:"
    INDEX 01 02:12:64
  TRACK 112 AUDIO
    TITLE "23:cjc135_0908"
    INDEX 01 02:13:14
  TRACK 113 AUDIO
    TITLE "0:"
    INDEX 01 02:15:58
  TRACK 114 AUDIO
    TITLE "22:cjc135_0909"
    INDEX 01 02:16:60
  TRACK 115 AUDIO
    TITLE "0:"
    INDEX 01 02:17:69
  TRACK 116 AUDIO
    TITLE "23:cjc135_0910"
    INDEX 01 02:18:21
  TRACK 117 AUDIO
    TITLE "0:"
    INDEX 01 02:20:44
  TRACK 118 AUDIO
    TITLE "22:cjc135_0911"
    INDEX 01 02:21:45
  TRACK 119 AUDIO
    TITLE "0:"
    INDEX 01 02:22:49
  TRACK 120 AUDIO
    TITLE "23:cjc135_0912"
    INDEX 01 02:22:74
  TRACK 121 AUDIO
    TITLE "0:"
    INDEX 01 02:25:21
  TRACK 122 AUDIO
    TITLE "22:cjc135_0913"
    INDEX 01 02:26:19
  TRACK 123 AUDIO
    TITLE "0:"
    INDEX 01 02:27:26
  TRACK 124 AUDIO
    TITLE "23:cjc135_0914"
    INDEX 01 02:27:50
  TRACK 125 AUDIO
    TITLE "0:"
    INDEX 01 02:30:42
  TRACK 126 AUDIO
    TITLE "22:cjc135_0915"
    INDEX 01 02:31:40
  TRACK 127 AUDIO
    TITLE "0:"
    INDEX 01 02:32:45
  TRACK 128 AUDIO
    TITLE "23:cjc135_0916"
    INDEX 01 02:32:71
  TRACK 129 AUDIO
    TITLE "0:"
    INDEX 01 02:35:49
  TRACK 130 AUDIO
    TITLE "22:cjc135_0917"
    INDEX 01 02:36:51
  TRACK 131 AUDIO
    TITLE "0:"
    INDEX 01 02:37:68
  TRACK 132 AUDIO
    TITLE "23:cjc135_0918"
    INDEX 01 02:38:20
  TRACK 133 AUDIO
    TITLE "0:"
    INDEX 01 02:40:48
  TRACK 134 AUDIO
    TITLE "22:cjc135_0919"
    INDEX 01 02:41:48
  TRACK 135 AUDIO
    TITLE "0:"
    INDEX 01 02:42:49
  TRACK 136 AUDIO
    TITLE "23:cjc135_0920"
    INDEX 01 02:43:00
  TRACK 137 AUDIO
    TITLE "0:"
    INDEX 01 02:45:34
  TRACK 138 AUDIO
    TITLE "22:cjc135_0921"
    INDEX 01 02:46:35
  TRACK 139 AUDIO
    TITLE "0:"
    INDEX 01 02:47:45
  TRACK 140 AUDIO
    TITLE "23:cjc135_0922"
    INDEX 01 02:47:72
  TRACK 141 AUDIO
    TITLE "0:"
    INDEX 01 02:50:51
  TRACK 142 AUDIO
    TITLE "22:cjc135_0923"
    INDEX 01 02:51:52
  TRACK 143 AUDIO
    TITLE "0:"
    INDEX 01 02:52:65
  TRACK 144 AUDIO
    TITLE "23:cjc135_0924"
    INDEX 01 02:53:12
  TRACK 145 AUDIO
    TITLE "0:"
    INDEX 01 02:55:44
  TRACK 146 AUDIO
    TITLE "22:cjc135_0925"
    INDEX 01 02:56:46
  TRACK 147 AUDIO
    TITLE "0:"
    INDEX 01 02:57:37
  TRACK 148 AUDIO
    TITLE "23:cjc135_0926"
    INDEX 01 02:57:63
  TRACK 149 AUDIO
    TITLE "0:"
    INDEX 01 03:00:08
  TRACK 150 AUDIO
    TITLE "22:cjc135_0927"
    INDEX 01 03:01:08
  TRACK 151 AUDIO
    TITLE "0:"
    INDEX 01 03:02:09
  TRACK 152 AUDIO
    TITLE "23:cjc135_0928"
    INDEX 01 03:02:30
  TRACK 153 AUDIO
    TITLE "0:"
    INDEX 01 03:04:65
  TRACK 154 AUDIO
    TITLE "22:cjc135_0929"
    INDEX 01 03:05:68
  TRACK 155 AUDIO
    TITLE "0:"
    INDEX 01 03:07:24
  TRACK 156 AUDIO
    TITLE "23:cjc135_0930"
    INDEX 01 03:07:49
  TRACK 157 AUDIO
    TITLE "0:"
    INDEX 01 03:10:14
  TRACK 158 AUDIO
    TITLE "22:cjc135_0931"
    INDEX 01 03:11:12
  TRACK 159 AUDIO
    TITLE "0:"
    INDEX 01 03:12:11
  TRACK 160 AUDIO
    TITLE "23:cjc135_0932"
    INDEX 01 03:12:35
  TRACK 161 AUDIO
    TITLE "0:"
    INDEX 01 03:15:19
  TRACK 162 AUDIO
    TITLE "22:cjc135_0933"
    INDEX 01 03:16:19
  TRACK 163 AUDIO
    TITLE "0:"
    INDEX 01 03:17:48
  TRACK 164 AUDIO
    TITLE "23:cjc135_0934"
    INDEX 01 03:17:71
  TRACK 165 AUDIO
    TITLE "0:"
    INDEX 01 03:20:60
  TRACK 166 AUDIO
    TITLE "22:cjc135_0935"
    INDEX 01 03:21:63
  TRACK 167 AUDIO
    TITLE "0:"
    INDEX 01 03:23:13
  TRACK 168 AUDIO
    TITLE "23:cjc135_0936"
    INDEX 01 03:23:37
  TRACK 169 AUDIO
    TITLE "0:"
    INDEX 01 03:26:25
  TRACK 170 AUDIO
    TITLE "22:cjc135_0937"
    INDEX 01 03:27:25
  TRACK 171 AUDIO
    TITLE "0:"
    INDEX 01 03:28:32
  TRACK 172 AUDIO
    TITLE "23:cjc135_0938"
    INDEX 01 03:28:59
  TRACK 173 AUDIO
    TITLE "0:"
    INDEX 01 03:31:56
  TRACK 174 AUDIO
    TITLE "22:cjc135_0939"
    INDEX 01 03:32:57
  TRACK 175 AUDIO
    TITLE "0:"
    INDEX 01 03:33:68
  TRACK 176 AUDIO
    TITLE "23:cjc135_0940"
    INDEX 01 03:34:21
  TRACK 177 AUDIO
    TITLE "0:"
    INDEX 01 03:37:05
  TRACK 178 AUDIO
    TITLE "22:cjc135_0941"
    INDEX 01 03:38:05
  TRACK 179 AUDIO
    TITLE "0:"
    INDEX 01 03:39:26
  TRACK 180 AUDIO
    TITLE "23:cjc135_0942"
    INDEX 01 03:39:53
  TRACK 181 AUDIO
    TITLE "0:"
    INDEX 01 03:42:48
  TRACK 182 AUDIO
    TITLE "22:cjc135_0943"
    INDEX 01 03:43:49
  TRACK 183 AUDIO
    TITLE "0:"
    INDEX 01 03:44:72
  TRACK 184 AUDIO
    TITLE "23:cjc135_0944"
    INDEX 01 03:45:24
  TRACK 185 AUDIO
    TITLE "0:"
    INDEX 01 03:47:59
  TRACK 186 AUDIO
    TITLE "22:cjc135_0945"
    INDEX 01 03:48:60
  TRACK 187 AUDIO
    TITLE "0:"
    INDEX 01 03:50:02
  TRACK 188 AUDIO
    TITLE "23:cjc135_0946"
    INDEX 01 03:50:28
  TRACK 189 AUDIO
    TITLE "0:"
    INDEX 01 03:53:14
  TRACK 190 AUDIO
    TITLE "22:cjc135_0947"
    INDEX 01 03:54:16
  TRACK 191 AUDIO
    TITLE "0:"
    INDEX 01 03:55:17
  TRACK 192 AUDIO
    TITLE "23:cjc135_0948"
    INDEX 01 03:55:42
  TRACK 193 AUDIO
    TITLE "0:"
    INDEX 01 03:58:37
  TRACK 194 AUDIO
    TITLE "22:cjc135_0949"
    INDEX 01 03:59:38
  TRACK 195 AUDIO
    TITLE "0:"
    INDEX 01 04:00:36
  TRACK 196 AUDIO
    TITLE "23:cjc135_0950"
    INDEX 01 04:00:63
  TRACK 197 AUDIO
    TITLE "0:"
    INDEX 01 04:02:74
  TRACK 198 AUDIO
    TITLE "22:cjc135_0951"
    INDEX 01 04:04:00
  TRACK 199 AUDIO
    TITLE "0:"
    INDEX 01 04:05:13
  TRACK 200 AUDIO
    TITLE "23:cjc135_0952"
    INDEX 01 04:05:37
  TRACK 201 AUDIO
    TITLE "0:"
    INDEX 01 04:08:29
